<svg xmlns="http://www.w3.org/2000/svg" viewBox="0 0 395.79 483.79">
    <defs>
        <style>
            .cls-1{fill:#2879b8;}
            .cls-2,.cls-3,.cls-4{fill:none;}
            .cls-2,.cls-3,.cls-4,.cls-6{stroke:#231f20;stroke-miterlimit:10;}
            .cls-2,.cls-3{stroke-width:8px;}
            .cls-3,.cls-4{stroke-linecap:round;}
            .cls-4{stroke-width:10px;}
            .cls-5{fill:#231f20;}
            .cls-6{fill:#ee2a40;stroke-width:7px;}
            .cls-7{fill:#f1f2f2;}
            
            /* Animation styles */
            @keyframes rotate {
                0% { transform: rotate(0deg); }
                100% { transform: rotate(360deg); }
            }
            @keyframes markColorChange {
                0% { fill: #ee2a40; } /* Red */
                20% { fill: #ffee00; } /* Yellow */
                40% { fill: #00ff00; } /* Green */
                60% { fill: #0099ff; } /* Blue */
                80% { fill: #9900ff; } /* Purple */
                100% { fill: #ee2a40; } /* Back to Red */
            }
            @keyframes blink {
                0%, 40%, 80%, 100% { opacity: 1; } /* Visible */
                20%, 60% { opacity: 0; } /* Hidden */
            }
            .text-rotate {
                transform-origin: 203.78px 237.7px;
                animation: rotate 20s linear infinite;
            }
            .mark-animate {
                animation: markColorChange 5s ease-in-out infinite;
            }
            .blinking-eye {
                animation: blink 2s linear infinite;
            }
        </style>
    </defs>
    <title>Animated Logo</title>
    <g id="Layer_2" data-name="Layer 2">
        <g id="bluebg">
            <path class="cls-1" d="M201.56,60.9c-66,2.26-125.44,39.4-154.74,97-41.26,81.14-.38,158.94,3.37,165.8,47.52,86.74,145.3,93.35,151,93.63Z"/>
        </g>
        <g id="face">
            <circle class="cls-2" cx="203.78" cy="237.7" r="176.03"/>
            <path class="cls-2" d="M74.8,118.06a594.82,594.82,0,0,0-3.12,74.7c.41,19.56.56,34.17,3.41,52.37,2.42,15.41,7.4,47.18,23.46,74.41,4,6.8,44.39,72.95,109,70,49.3-2.27,95.22-44,108.77-103.06,3.48-15.12,6.47-36.73,9.77-80.72,2.83-37.71,3.86-68.93,4.27-90.41-7.69-7.93-54.89-55-129.82-53.62C127.26,63.1,82.45,109.82,74.8,118.06Z"/>
            <path class="cls-2" d="M77.31,258.32A59.92,59.92,0,0,1,57.9,243.75c-3.36-3.84-14.86-17.36-14.28-36.5.19-6.27.6-19.72,10.84-26.89,6.39-4.48,13.64-4.42,17.1-4.13"/>
            <path class="cls-3" d="M201.56,60.9l.25,27.65"/>
            <path class="cls-3" d="M201.21,103.36l.35,17.92"/>
            <path class="cls-3" d="M201.9,141.43q-.26,9-.52,18.09"/>
            <path class="cls-3" d="M201.56,181.39q.76,45.13,1.55,90.26"/>
            <path class="cls-4" d="M176.64,264.88A60.31,60.31,0,0,0,215,271.54"/>
            <path class="cls-4" d="M99.24,166.92A34.18,34.18,0,0,1,113,155.73c9.62-4.14,18.6-2.16,30,.51a110.3,110.3,0,0,1,31,12.58"/>
            <path class="cls-4" d="M107.51,198.79c1.31-1.66,11.28-13.81,28.42-14.13,18-.33,28.6,12.62,29.8,14.13"/>
            <path class="cls-4" d="M224.12,310.06A137.86,137.86,0,0,1,174.75,308a135.26,135.26,0,0,1-22.46-7.24"/>
            <path class="cls-4" d="M208.1,336.93H183.81"/>
            <circle class="cls-5 blinking-eye" cx="138.25" cy="197.82" r="11.72"/>
        </g>
        <g id="mark">
            <path class="cls-6 mark-animate" d="M287.58,132,211.5,263.81a15.34,15.34,0,0,0,13.28,23H376.93a15.34,15.34,0,0,0,13.28-23L314.13,132A15.33,15.33,0,0,0,287.58,132Z"/>
            <path class="cls-7" d="M301.41,168a28.42,28.42,0,0,1,5.55,7.64,32.27,32.27,0,0,1,2.72,7.68,17.75,17.75,0,0,1,0,7.71c-.55,2.58-1.3,5.16-1.62,7.73q-1,7.72-2.53,15.44c-1,5.16-2.06,10.31-3.43,15.46l-1.8,0c-1.48-5.12-2.61-10.25-3.77-15.37s-2.09-10.26-2.87-15.39c-.39-2.57-1.2-5.13-1.8-7.69a17.75,17.75,0,0,1-.18-7.71,32.15,32.15,0,0,1,2.56-7.73,28.13,28.13,0,0,1,5.37-7.77Z"/>
            <circle class="cls-7" cx="300.51" cy="256.41" r="10.59"/>
        </g>
        <g id="text" class="text-rotate">
            <path class="cls-5" d="M45.85,378.11a12.7,12.7,0,0,0,.58-7.73,21.27,21.27,0,0,0-4.21-8.26L36,354.21h0L33.53,351,0,377.31l2.49,3.18h0l6.18,7.88a20.48,20.48,0,0,0,7.21,6.12,12.9,12.9,0,0,0,7.7,1.17,16.31,16.31,0,0,0,7.48-3.47l9.5-7.44A16.33,16.33,0,0,0,45.85,378.11Zm-10.24-.06-9.87,7.74a6.79,6.79,0,0,1-5.57,1.62,9,9,0,0,1-5.28-3.65L11,378.85l21.35-16.73L36.24,367a8.94,8.94,0,0,1,2.28,6A6.8,6.8,0,0,1,35.61,378.05Z"/>
            <polygon class="cls-5" points="72.39 393.45 66.1 388.47 39.66 421.87 43.86 425.19 62.03 439.58 66.83 433.51 50.75 420.78 56.68 413.3 70.23 424.02 75.03 417.96 61.48 407.23 67.59 399.51 83.67 412.24 88.47 406.18 72.39 393.45 72.39 393.45"/>
            <polygon class="cls-5" points="96.63 420.44 107.06 425.52 91.79 456.87 99.01 460.38 114.27 429.04 124.7 434.12 128.09 427.17 100.02 413.49 96.63 420.44"/>
            <polygon class="cls-5" points="150.77 434.06 148.63 433.56 145.78 432.88 145.78 432.88 142.96 432.21 133.1 473.65 135.93 474.32 135.93 474.32 160.87 480.25 162.65 472.72 142.7 467.98 144.91 458.69 161.73 462.69 163.52 455.16 146.7 451.17 148.98 441.59 168.93 446.33 170.72 438.81 150.77 434.06 150.77 434.06"/>
            <path class="cls-5" d="M209,472.72A6.77,6.77,0,0,1,206.6,475a6.38,6.38,0,0,1-3.16.78,7.48,7.48,0,0,1-3.84-.93,6,6,0,0,1-2.42-2.68,9.89,9.89,0,0,1-.83-4.24V456.23a9.8,9.8,0,0,1,.83-4.27,5.88,5.88,0,0,1,2.42-2.69,7.42,7.42,0,0,1,3.83-.93,6.26,6.26,0,0,1,3.12.79,7,7,0,0,1,2.38,2.29,10.9,10.9,0,0,1,1.45,3.6h8.32a21.57,21.57,0,0,0-2.86-7.95,14.13,14.13,0,0,0-5.23-5,14.75,14.75,0,0,0-7.18-1.72,17.22,17.22,0,0,0-8.32,1.87,12.53,12.53,0,0,0-5.27,5.44,18.74,18.74,0,0,0-1.82,8.6v11.69a18.64,18.64,0,0,0,1.82,8.6,12.43,12.43,0,0,0,5.27,5.42l3.46,1.85h4.86a14.57,14.57,0,0,0,7.17-1.73,14.28,14.28,0,0,0,5.21-5,21.88,21.88,0,0,0,2.88-8h-8.32A10.6,10.6,0,0,1,209,472.72Z"/>
            <polygon class="cls-5" points="261.64 432.69 231.13 439.37 232.79 446.92 244.12 444.44 251.57 478.5 259.42 476.78 251.96 442.73 263.3 440.25 261.64 432.69"/>
            <rect class="cls-5" x="283.67" y="424.08" width="8.32" height="42.6" transform="translate(-146.78 141.53) rotate(-22.17)"/>
            <path class="cls-5" d="M342,422.15,335.39,412a17,17,0,0,0-6.12-5.86,13.54,13.54,0,0,0-7.58-1.63A18,18,0,0,0,308,413.46a13.55,13.55,0,0,0-1.58,7.6,17,17,0,0,0,2.89,8l6.59,10.12A16.94,16.94,0,0,0,322,445a13.54,13.54,0,0,0,7.58,1.63,18,18,0,0,0,13.67-8.91,13.52,13.52,0,0,0,1.58-7.59A17,17,0,0,0,342,422.15Zm-6.15,12.07a8.36,8.36,0,0,1-6.38,4.16,6.36,6.36,0,0,1-3.56-.81,8.37,8.37,0,0,1-2.89-2.8l-6.81-10.46a8.31,8.31,0,0,1-1.4-3.78,6.31,6.31,0,0,1,.69-3.58,8.36,8.36,0,0,1,6.38-4.16,6.29,6.29,0,0,1,3.56.82,8.28,8.28,0,0,1,2.89,2.8l6.82,10.45a8.37,8.37,0,0,1,1.39,3.78A6.29,6.29,0,0,1,335.83,434.22Z"/>
            <polygon class="cls-5" points="394.89 391.94 363.54 363.14 358.35 368.8 381.32 389.9 348.1 379.95 341.46 387.18 372.81 415.98 378 410.32 355.39 389.55 388.21 399.21 394.89 391.94"/>
            <path class="cls-5" d="M40.17,129.91h0l6-8a20.55,20.55,0,0,0,4-8.56,12.9,12.9,0,0,0-.89-7.74A16.27,16.27,0,0,0,44,99.27L34.3,92.05a16.33,16.33,0,0,0-7.79-3.36,12.65,12.65,0,0,0-7.61,1.47A21.16,21.16,0,0,0,12,96.38l-6,8.06-2.41,3.24,34.14,25.47Zm-25.56-24,3.73-5a8.93,8.93,0,0,1,5.18-3.77,6.78,6.78,0,0,1,5.62,1.48l10,7.5a6.79,6.79,0,0,1,3,5,9,9,0,0,1-2.14,6l-3.73,5Z"/>
            <polygon class="cls-5" points="69.8 84.81 63.71 77.45 77.02 66.43 72.09 60.47 58.77 71.5 52.5 63.91 68.29 50.84 63.36 44.88 43.62 61.23 43.62 61.23 41.38 63.07 68.55 95.89 70.78 94.04 70.78 94.04 90.53 77.69 85.59 71.73 69.8 84.81"/>
            <polygon class="cls-5" points="108.73 58.12 104.5 49.56 119.99 41.9 116.57 34.97 101.07 42.63 96.71 33.8 115.1 24.72 111.67 17.78 93.28 26.87 93.28 26.87 86.09 30.42 104.96 68.61 107.56 67.33 107.56 67.33 130.54 55.97 127.11 49.04 108.73 58.12"/>
            <path class="cls-5" d="M154.45,48.69l-3.61-16.12,8.83-2a14.76,14.76,0,0,0,6.5-3.1A11.57,11.57,0,0,0,169.76,22a13.68,13.68,0,0,0,.13-7,13.71,13.71,0,0,0-3.13-6.32,11.61,11.61,0,0,0-5.59-3.45,14.69,14.69,0,0,0-7.2-.05l-8.84,2h0L137.3,8.88l9.32,41.57Zm1.41-36a4.79,4.79,0,0,1,2.64.08,4.44,4.44,0,0,1,2.07,1.45,6.25,6.25,0,0,1,1.2,2.6,5.88,5.88,0,0,1,0,2.83,4.47,4.47,0,0,1-1.26,2.19A4.93,4.93,0,0,1,158.18,23l-9,2-2.32-10.35Z"/>
            <polygon class="cls-5" points="195.67 0.03 192.75 0 192.35 42.6 200.38 42.67 200.54 25.77 217.26 25.92 217.34 18.18 200.61 18.03 200.7 7.81 220.65 7.99 220.72 0.26 195.67 0.03 195.67 0.03"/>
            <path class="cls-5" d="M254.22,5.7,228.73,43.52l8.42,1.95L241,39.36l15.21,3.53.78,7.19,8.42,2L259.18,6.85Zm-8.81,26.74,8.24-13,1.68,15.3Z"/>
            <polygon class="cls-5" points="307.91 44.32 327.22 34.49 318.24 29.85 296.22 42.24 305.9 23.48 298.77 19.8 279.23 57.66 286.36 61.34 290.59 53.14 299.91 48.4 300.81 68.8 309.27 73.16 307.91 44.32"/>
            <polygon class="cls-5" points="323.36 84.09 323.36 84.09 324.57 85.14 327.22 87.47 327.22 87.47 342.63 100.99 347.73 95.17 332.32 81.65 338.62 74.47 351.61 85.87 356.71 80.06 343.71 68.66 350.2 61.26 365.62 74.78 370.72 68.97 355.31 55.44 355.31 55.44 349.27 50.15 321.18 82.17 323.36 84.09"/>
        </g>
    </g>
</svg>